<svg width="709" height="111" viewBox="0 0 709 111" fill="none" xmlns="http://www.w3.org/2000/svg">
<path d="M161.68 10.94H179.47V84H222.54V99.88H161.68V10.94Z" fill="#EEEEED"/>
<path d="M226.73 68.5C226.73 49.57 238.42 35.85 261.93 35.85C285.44 35.85 297.13 49.57 297.13 68.5C297.13 87.43 285.19 101.15 261.93 101.15C238.67 101.15 226.73 87.3 226.73 68.5ZM261.93 88.2C273.87 88.2 280.23 79.81 280.23 68.5C280.23 57.19 273.88 48.81 261.93 48.81C249.98 48.81 243.63 57.07 243.63 68.5C243.63 79.93 249.98 88.2 261.93 88.2Z" fill="#EEEEED"/>
<path d="M307.54 37.11H324.44V48.16C329.14 39.77 337.65 35.84 346.29 35.84C356.84 35.84 363.19 41.05 366.24 50.07C370.81 40.41 380.34 35.84 389.62 35.84C405.76 35.84 412.49 47.02 412.49 65.7V99.88H395.46V66.59C395.46 56.81 394.19 48.55 384.03 48.55C373.23 48.55 368.4 57.57 368.4 68.75V99.88H351.63V66.59C351.63 56.81 350.36 48.55 340.19 48.55C329.13 48.55 324.43 57.57 324.43 68.25V99.89H307.53V37.12L307.54 37.11Z" fill="#EEEEED"/>
<path d="M422.4 80.57C422.4 67.74 432.57 59.99 449.59 59.99C455.69 59.99 461.41 60.88 466.49 62.91C465.22 52.24 458.49 47.92 447.05 47.92C440.95 47.92 434.6 49.45 428.12 52.49V40.42C434.98 37.37 442.73 35.85 450.86 35.85C471.7 35.85 483.64 45.51 483.64 66.73V99.89H466.74V89.85C462.42 97.22 454.8 101.16 445.39 101.16C432.43 101.16 422.39 93.66 422.39 80.58L422.4 80.57ZM450.61 90.23C460.52 90.23 466.62 83.88 466.75 73.08C462.05 71.68 457.6 71.05 453.79 71.05C442.99 71.05 438.8 75.12 438.8 80.71C438.8 86.68 443.5 90.24 450.62 90.24L450.61 90.23Z" fill="#EEEEED"/>
<path d="M494.06 68.5C494.06 47.79 506 35.85 523.03 35.85C533.07 35.85 541.45 40.3 545.9 48.3V8.39996H562.8V99.88H545.9V88.7C541.45 96.7 533.07 101.15 523.03 101.15C506 101.15 494.06 88.95 494.06 68.5ZM528.49 88.07C539.29 88.07 545.9 79.94 545.9 68.5C545.9 57.06 539.29 48.93 528.49 48.93C517.69 48.93 510.96 56.81 510.96 68.5C510.96 80.19 517.69 88.07 528.49 88.07Z" fill="#EEEEED"/>
<path d="M573.35 67.99C573.35 48.04 586.56 35.84 607.15 35.84C624.43 35.84 636.88 44.86 636.88 61.76C636.88 64.68 636.5 67.73 635.48 71.67H589.87C591.65 82.85 599.27 88.7 614.01 88.7C621.51 88.7 627.73 87.17 634.59 83.74V94.29C626.84 99.37 618.58 101.15 610.45 101.15C586.44 101.15 573.35 88.06 573.35 67.99ZM621.38 61V60.36C621.38 52.23 616.55 46.89 607.15 46.89C597.75 46.89 591.52 51.59 589.87 60.99H621.38V61Z" fill="#EEEEED"/>
<path d="M645.13 67.99C645.13 48.04 658.34 35.84 678.93 35.84C696.21 35.84 708.66 44.86 708.66 61.76C708.66 64.68 708.28 67.73 707.26 71.67H661.65C663.43 82.85 671.05 88.7 685.79 88.7C693.29 88.7 699.51 87.17 706.37 83.74V94.29C698.62 99.37 690.36 101.15 682.23 101.15C658.22 101.15 645.13 88.06 645.13 67.99ZM693.16 61V60.36C693.16 52.23 688.33 46.89 678.93 46.89C669.53 46.89 663.3 51.59 661.65 60.99H693.16V61Z" fill="#EEEEED"/>
<path d="M85.3002 38.61L97.0602 26.85C98.8202 25.09 98.8202 22.23 97.0602 20.47L77.9101 1.32C76.1501 -0.44 73.2902 -0.44 71.5302 1.32L49.1901 23.66L26.85 1.32C25.09 -0.44 22.2301 -0.44 20.4701 1.32L1.32 20.47C-0.44 22.23 -0.44 25.09 1.32 26.85L23.6601 49.19L46.0002 71.53C47.7602 73.29 50.6201 73.29 52.3801 71.53L74.7201 49.19L83.37 40.54C84.08 39.83 85.2902 40.34 85.2902 41.34V74.72H49.1901C29.2501 74.72 13.09 90.88 13.09 110.82H85.3002C105.24 110.82 121.4 94.66 121.4 74.72C121.4 54.78 105.24 38.62 85.3002 38.62V38.61Z" fill="#FF4712"/>
<path d="M48.3901 22.86L49.1902 23.66L49.9902 22.86C49.5502 23.3 48.8401 23.3 48.3901 22.86Z" fill="#FF4712"/>
</svg>
