<svg width="709" height="111" viewBox="0 0 709 111" fill="none" xmlns="http://www.w3.org/2000/svg">
<path d="M161.69 10.94H179.48V84H222.55V99.88H161.69V10.94Z" fill="#402020"/>
<path d="M226.74 68.5C226.74 49.57 238.43 35.85 261.94 35.85C285.45 35.85 297.14 49.57 297.14 68.5C297.14 87.43 285.2 101.15 261.94 101.15C238.68 101.15 226.74 87.3 226.74 68.5ZM261.94 88.2C273.88 88.2 280.24 79.81 280.24 68.5C280.24 57.19 273.89 48.81 261.94 48.81C249.99 48.81 243.64 57.07 243.64 68.5C243.64 79.93 249.99 88.2 261.94 88.2Z" fill="#402020"/>
<path d="M307.55 37.11H324.45V48.16C329.15 39.77 337.66 35.84 346.3 35.84C356.85 35.84 363.2 41.05 366.25 50.07C370.82 40.41 380.35 35.84 389.63 35.84C405.77 35.84 412.5 47.02 412.5 65.7V99.88H395.47V66.59C395.47 56.81 394.2 48.55 384.04 48.55C373.24 48.55 368.41 57.57 368.41 68.75V99.88H351.64V66.59C351.64 56.81 350.37 48.55 340.2 48.55C329.14 48.55 324.44 57.57 324.44 68.25V99.89H307.54V37.12L307.55 37.11Z" fill="#402020"/>
<path d="M422.41 80.57C422.41 67.74 432.58 59.99 449.6 59.99C455.7 59.99 461.42 60.88 466.5 62.91C465.23 52.24 458.5 47.92 447.06 47.92C440.96 47.92 434.61 49.45 428.13 52.49V40.42C434.99 37.37 442.74 35.85 450.87 35.85C471.71 35.85 483.65 45.51 483.65 66.73V99.89H466.75V89.85C462.43 97.22 454.81 101.16 445.4 101.16C432.44 101.16 422.4 93.66 422.4 80.58L422.41 80.57ZM450.62 90.23C460.53 90.23 466.63 83.88 466.76 73.08C462.06 71.68 457.61 71.05 453.8 71.05C443 71.05 438.81 75.12 438.81 80.71C438.81 86.68 443.51 90.24 450.63 90.24L450.62 90.23Z" fill="#402020"/>
<path d="M494.07 68.5C494.07 47.79 506.01 35.85 523.04 35.85C533.08 35.85 541.46 40.3 545.91 48.3V8.39996H562.81V99.88H545.91V88.7C541.46 96.7 533.08 101.15 523.04 101.15C506.01 101.15 494.07 88.95 494.07 68.5ZM528.5 88.07C539.3 88.07 545.91 79.94 545.91 68.5C545.91 57.06 539.3 48.93 528.5 48.93C517.7 48.93 510.97 56.81 510.97 68.5C510.97 80.19 517.7 88.07 528.5 88.07Z" fill="#402020"/>
<path d="M573.35 67.99C573.35 48.04 586.56 35.84 607.15 35.84C624.43 35.84 636.88 44.86 636.88 61.76C636.88 64.68 636.5 67.73 635.48 71.67H589.87C591.65 82.85 599.27 88.7 614.01 88.7C621.51 88.7 627.73 87.17 634.59 83.74V94.29C626.84 99.37 618.58 101.15 610.45 101.15C586.44 101.15 573.35 88.06 573.35 67.99ZM621.38 61V60.36C621.38 52.23 616.55 46.89 607.15 46.89C597.75 46.89 591.52 51.59 589.87 60.99H621.38V61Z" fill="#402020"/>
<path d="M645.14 67.99C645.14 48.04 658.35 35.84 678.94 35.84C696.22 35.84 708.67 44.86 708.67 61.76C708.67 64.68 708.29 67.73 707.27 71.67H661.66C663.44 82.85 671.06 88.7 685.8 88.7C693.3 88.7 699.52 87.17 706.38 83.74V94.29C698.63 99.37 690.37 101.15 682.24 101.15C658.23 101.15 645.14 88.06 645.14 67.99ZM693.17 61V60.36C693.17 52.23 688.34 46.89 678.94 46.89C669.54 46.89 663.31 51.59 661.66 60.99H693.17V61Z" fill="#402020"/>
<path d="M85.3 38.61L97.06 26.85C98.82 25.09 98.82 22.23 97.06 20.47L77.91 1.32C76.15 -0.44 73.29 -0.44 71.53 1.32L49.19 23.66L26.85 1.32C25.09 -0.44 22.23 -0.44 20.47 1.32L1.32 20.47C-0.44 22.23 -0.44 25.09 1.32 26.85L23.66 49.19L46 71.53C47.76 73.29 50.62 73.29 52.38 71.53L74.72 49.19L83.37 40.54C84.08 39.83 85.29 40.34 85.29 41.34V74.72H49.19C29.25 74.72 13.09 90.88 13.09 110.82H85.3C105.24 110.82 121.4 94.66 121.4 74.72C121.4 54.78 105.24 38.62 85.3 38.62V38.61Z" fill="#FF4712"/>
<path d="M48.4 22.86L49.2 23.66L50 22.86C49.56 23.3 48.85 23.3 48.4 22.86Z" fill="#FF4712"/>
</svg>
